<svg xmlns="http://www.w3.org/2000/svg" viewBox="0 0 800 800"><defs><style>.a{fill:#333;}</style></defs><path class="a" d="M400,33.33A35,35,0,0,0,371.67,50L220,283.33a38.37,38.37,0,0,0,0,33.34,31.67,31.67,0,0,0,28.33,16.66H550a35,35,0,0,0,28.33-16.66,30,30,0,0,0,0-33.34L428.33,50A31.67,31.67,0,0,0,400,33.33Z"/><path class="a" d="M716.67,716.67H483.33A33.34,33.34,0,0,1,450,683.33V450a33.33,33.33,0,0,1,33.33-33.33H716.67A33.33,33.33,0,0,1,750,450V683.33A33.34,33.34,0,0,1,716.67,716.67Z"/><path class="a" d="M216.67,400A166.67,166.67,0,1,0,383.33,566.67,166.67,166.67,0,0,0,216.67,400Z"/></svg>