<svg xmlns="http://www.w3.org/2000/svg" viewBox="0 0 96.24 73.24"><defs><style>.a{fill:#333;}</style></defs><path class="a" d="M48.12,100.62h-6v-12H13.88L48.12,54.38V82.62h6v6h-6Zm-19.76-18H42.12V68.86Z" transform="translate(-13.88 -27.38)"/><path class="a" d="M76.89,65.62a8.82,8.82,0,0,1,.23,2,9,9,0,1,1-10-9l5.38-5.38A15,15,0,1,0,83.12,67.62a14.71,14.71,0,0,0-.15-2Z" transform="translate(-13.88 -27.38)"/><path class="a" d="M104.12,55.62V27.38L69.88,61.62H98.12v12h6v-12h6v-6Zm-6,0H84.36L98.12,41.86Z" transform="translate(-13.88 -27.38)"/></svg>